<?xml version="1.0" standalone="no"?>
<!DOCTYPE svg PUBLIC "-//W3C//DTD SVG 20010904//EN"
 "http://www.w3.org/TR/2001/REC-SVG-20010904/DTD/svg10.dtd">
<svg version="1.0" xmlns="http://www.w3.org/2000/svg"
 width="500.000000pt" height="500.000000pt" viewBox="0 0 500.000000 500.000000"
 preserveAspectRatio="xMidYMid meet">

<g transform="translate(0.000000,500.000000) scale(0.100000,-0.100000)"
fill="#000000" stroke="none">
<path d="M2440 4201 c-87 -19 -173 -90 -209 -172 -30 -67 -30 -181 -2 -238 55
-106 141 -163 258 -169 61 -4 80 0 130 23 64 29 104 63 136 115 11 19 26 38
31 42 20 13 8 185 -17 236 -27 58 -87 119 -141 143 -50 22 -136 31 -186 20z
m170 -75 c176 -89 166 -355 -15 -432 -57 -24 -150 -23 -201 4 -47 24 -100 81
-120 128 -18 43 -18 135 0 178 20 48 71 101 119 125 59 30 156 28 217 -3z"/>
<path d="M2006 3825 c-104 -39 -198 -86 -202 -100 -2 -5 7 -23 21 -39 l23 -29
75 36 c40 20 107 47 148 61 69 24 74 27 72 53 -5 64 -13 65 -137 18z"/>
<path d="M2866 3829 c-9 -48 -7 -59 10 -59 21 0 187 -67 238 -96 l39 -22 24
35 c13 19 21 39 17 44 -13 22 -268 129 -308 129 -8 0 -16 -14 -20 -31z"/>
<path d="M1403 3764 c-58 -21 -127 -85 -157 -146 -35 -70 -37 -189 -4 -257 24
-50 115 -147 138 -148 8 -1 41 -6 73 -13 60 -12 145 -2 188 21 45 24 113 96
135 144 28 60 32 150 9 230 -18 62 -71 119 -143 156 -59 30 -176 36 -239 13z
m233 -76 c73 -50 107 -105 112 -182 5 -79 -8 -121 -54 -175 -56 -65 -102 -84
-195 -79 -67 3 -83 7 -120 33 -24 17 -57 53 -74 80 -26 42 -30 58 -30 119 1
82 24 136 77 181 50 42 86 54 164 55 65 0 77 -3 120 -32z"/>
<path d="M3382 3763 c-23 -8 -67 -37 -96 -64 -70 -64 -90 -118 -84 -227 4 -89
25 -139 80 -194 82 -82 175 -101 333 -65 49 11 129 103 153 176 7 19 12 66 12
106 0 56 -5 82 -26 123 -32 64 -100 125 -161 146 -58 20 -154 19 -211 -1z
m215 -61 c22 -11 56 -39 76 -61 92 -102 68 -272 -52 -356 -40 -28 -49 -30
-131 -30 -82 0 -91 2 -131 30 -120 84 -144 254 -52 356 79 87 192 111 290 61z"/>
<path d="M2375 3359 c-90 -10 -230 -60 -319 -111 -75 -44 -207 -164 -261 -239
-45 -60 -108 -188 -130 -259 -43 -145 -38 -371 11 -519 52 -158 164 -314 297
-414 154 -116 291 -166 483 -174 268 -12 459 62 649 252 141 141 214 278 246
462 17 95 6 290 -21 383 -81 281 -312 514 -590 593 -98 28 -257 39 -365 26z
m310 -135 c33 -8 103 -36 155 -61 81 -39 108 -59 185 -137 154 -154 219 -312
219 -531 1 -139 -19 -217 -87 -350 -58 -112 -190 -244 -302 -302 -228 -118
-457 -122 -685 -11 -91 44 -115 62 -195 142 -152 153 -218 311 -219 526 -1
211 66 373 219 525 96 96 171 144 295 185 124 42 283 47 415 14z"/>
<path d="M2450 2907 c0 -43 -1 -44 -42 -56 -65 -20 -108 -50 -139 -99 -68
-108 -37 -237 72 -292 20 -11 73 -29 116 -40 128 -34 135 -38 131 -74 -3 -30
-5 -31 -58 -34 -64 -4 -111 16 -129 55 -9 19 -17 24 -34 19 -12 -3 -55 -11
-94 -18 -40 -6 -73 -17 -73 -23 0 -18 41 -89 69 -118 31 -34 79 -60 139 -76
41 -12 42 -12 42 -56 l0 -45 55 0 55 0 0 44 0 45 57 16 c84 25 137 65 169 130
23 47 26 64 21 111 -7 65 -36 117 -86 149 -20 14 -87 38 -150 54 -63 17 -118
34 -124 40 -16 16 -3 45 27 60 37 17 97 1 125 -35 l20 -25 85 25 c76 24 84 28
78 48 -3 12 -26 43 -51 69 -36 37 -59 51 -108 66 l-63 18 0 43 0 42 -55 0 -55
0 0 -43z"/>
<path d="M1225 3115 c-20 -41 -49 -112 -65 -159 -31 -93 -34 -86 32 -100 25
-6 27 -3 49 62 12 37 40 104 61 150 22 46 38 85 36 86 -34 22 -59 36 -67 36
-6 0 -26 -34 -46 -75z"/>
<path d="M3696 3175 c-10 -8 -24 -16 -30 -18 -6 -2 6 -39 31 -93 22 -49 48
-114 58 -144 10 -30 21 -59 25 -63 4 -5 24 -5 44 -2 25 5 36 13 36 25 0 47
-114 310 -134 310 -6 0 -20 -7 -30 -15z"/>
<path d="M974 2771 c-54 -24 -109 -74 -139 -125 -86 -147 -27 -342 126 -413
56 -26 211 -40 231 -20 7 7 29 22 48 34 112 69 167 215 129 343 -17 58 -78
131 -139 168 -49 29 -61 32 -135 32 -56 0 -92 -6 -121 -19z m206 -52 c95 -43
143 -116 143 -219 0 -78 -23 -130 -82 -183 -113 -102 -303 -63 -370 76 -25 51
-28 150 -8 200 51 120 199 180 317 126z"/>
<path d="M3782 2764 c-157 -78 -212 -284 -113 -429 14 -22 47 -54 71 -72 25
-18 52 -39 60 -46 20 -17 181 -11 228 9 57 23 115 77 147 135 26 47 29 65 30
134 0 94 -22 151 -80 210 -59 58 -126 85 -216 85 -61 0 -85 -5 -127 -26z m233
-48 c90 -41 135 -114 135 -218 0 -206 -234 -314 -390 -180 -59 50 -83 103 -83
182 0 178 178 291 338 216z"/>
<path d="M3759 2081 c-12 -36 -30 -82 -40 -102 l-18 -37 35 -32 c20 -17 37
-30 38 -28 11 14 76 180 81 208 6 35 5 36 -34 46 l-40 11 -22 -66z"/>
<path d="M1166 2133 c-26 -4 -28 -7 -22 -36 8 -41 77 -217 85 -217 3 0 20 14
38 29 l31 29 -34 83 c-18 46 -34 92 -34 102 0 17 -7 18 -64 10z"/>
<path d="M3408 1917 c-86 -25 -157 -90 -196 -180 -7 -15 -12 -63 -12 -106 0
-63 5 -87 26 -128 38 -77 89 -125 155 -145 157 -50 307 9 374 147 24 48 27 64
23 137 -5 129 -58 213 -164 259 -56 25 -148 32 -206 16z m175 -60 c112 -48
171 -176 136 -300 -6 -24 -30 -59 -62 -92 -44 -45 -61 -55 -109 -66 -92 -20
-158 -1 -224 66 -56 56 -74 98 -74 175 0 86 63 180 145 216 39 17 147 18 188
1z"/>
<path d="M1375 1894 c-67 -34 -97 -65 -129 -130 -22 -45 -27 -69 -27 -129 0
-119 47 -202 150 -263 57 -33 176 -43 235 -18 21 9 43 13 48 10 14 -9 89 76
118 132 18 36 26 70 28 125 5 97 -20 159 -88 223 -65 61 -105 76 -204 76 -67
0 -90 -5 -131 -26z m245 -48 c170 -86 169 -339 -2 -427 -160 -82 -348 33 -348
213 0 69 16 111 59 160 69 79 196 103 291 54z"/>
<path d="M1752 1346 l-33 -32 93 -51 c102 -57 185 -93 266 -117 58 -17 60 -16
64 42 3 33 1 34 -52 51 -80 26 -177 68 -243 107 -32 19 -59 34 -60 33 -1 0
-17 -15 -35 -33z"/>
<path d="M2407 1366 c-83 -30 -156 -100 -188 -183 -19 -49 -11 -161 15 -218
50 -110 139 -167 263 -167 85 0 124 12 188 59 93 68 139 244 92 343 -32 67
-113 143 -171 163 -59 20 -147 21 -199 3z m202 -66 c133 -68 170 -240 78 -362
-46 -61 -104 -88 -190 -88 -80 0 -128 20 -177 76 -45 51 -60 93 -60 163 0 86
38 155 109 198 29 18 65 34 80 36 44 8 122 -3 160 -23z"/>
<path d="M3145 1343 c-62 -37 -241 -113 -267 -113 -24 0 -26 -9 -16 -50 7 -28
16 -40 28 -40 40 0 249 91 338 147 l53 33 -35 30 c-18 17 -35 30 -37 30 -2 -1
-31 -17 -64 -37z"/>
</g>
</svg>
